<svg width="24" height="24" viewBox="0 0 24 24" fill="none" xmlns="http://www.w3.org/2000/svg">
<g id="download">
<path id="Combined Shape" fill-rule="evenodd" clip-rule="evenodd" d="M16.9223 13.8717C17.3114 13.4809 17.5053 12.9684 17.5042 12.4564C17.5031 11.9444 17.3069 11.4329 16.9161 11.0437L11.6116 5.76229C11.2197 5.37214 10.5877 5.37352 10.1976 5.76537C9.80741 6.15722 9.80879 6.78922 10.2006 7.17937L14.496 11.456L3.48703 11.487C2.93603 11.4882 2.48901 11.9372 2.49022 12.4892L2.49022 12.4902C2.49142 13.0422 2.9414 13.4882 3.4934 13.487L14.5144 13.456L10.2237 17.7653C9.8336 18.1572 9.83498 18.7892 10.2268 19.1793C10.6187 19.5695 11.2507 19.5681 11.6408 19.1763L16.9223 13.8717Z" fill="white"/>
</g>
</svg>
