<svg width="24" height="25" viewBox="0 0 24 25" fill="none" xmlns="http://www.w3.org/2000/svg">
<path d="M7.09992 0.68457H16.8999C20.6333 0.68457 23.6666 3.7179 23.6666 7.45124V17.2512C23.6666 19.0459 22.9537 20.767 21.6847 22.036C20.4157 23.305 18.6946 24.0179 16.8999 24.0179H7.09992C3.36659 24.0179 0.333252 20.9846 0.333252 17.2512V7.45124C0.333252 5.65661 1.04617 3.93548 2.31516 2.66648C3.58416 1.39749 5.30529 0.68457 7.09992 0.68457ZM6.86659 3.0179C5.75268 3.0179 4.68439 3.4604 3.89674 4.24806C3.10908 5.03571 2.66659 6.10399 2.66659 7.2179V17.4846C2.66659 19.8062 4.54492 21.6846 6.86659 21.6846H17.1333C18.2472 21.6846 19.3155 21.2421 20.1031 20.4544C20.8908 19.6668 21.3333 18.5985 21.3333 17.4846V7.2179C21.3333 4.89624 19.4549 3.0179 17.1333 3.0179H6.86659ZM18.1249 4.7679C18.5117 4.7679 18.8826 4.92155 19.1561 5.19504C19.4296 5.46853 19.5833 5.83946 19.5833 6.22624C19.5833 6.61301 19.4296 6.98394 19.1561 7.25743C18.8826 7.53093 18.5117 7.68457 18.1249 7.68457C17.7381 7.68457 17.3672 7.53093 17.0937 7.25743C16.8202 6.98394 16.6666 6.61301 16.6666 6.22624C16.6666 5.83946 16.8202 5.46853 17.0937 5.19504C17.3672 4.92155 17.7381 4.7679 18.1249 4.7679ZM11.9999 6.5179C13.547 6.5179 15.0307 7.13249 16.1247 8.22645C17.2187 9.32041 17.8333 10.8041 17.8333 12.3512C17.8333 13.8983 17.2187 15.3821 16.1247 16.476C15.0307 17.57 13.547 18.1846 11.9999 18.1846C10.4528 18.1846 8.96909 17.57 7.87513 16.476C6.78117 15.3821 6.16659 13.8983 6.16659 12.3512C6.16659 10.8041 6.78117 9.32041 7.87513 8.22645C8.96909 7.13249 10.4528 6.5179 11.9999 6.5179ZM11.9999 8.85124C11.0717 8.85124 10.1814 9.21999 9.52505 9.87636C8.86867 10.5327 8.49992 11.423 8.49992 12.3512C8.49992 13.2795 8.86867 14.1697 9.52505 14.8261C10.1814 15.4825 11.0717 15.8512 11.9999 15.8512C12.9282 15.8512 13.8184 15.4825 14.4748 14.8261C15.1312 14.1697 15.4999 13.2795 15.4999 12.3512C15.4999 11.423 15.1312 10.5327 14.4748 9.87636C13.8184 9.21999 12.9282 8.85124 11.9999 8.85124Z" fill="white"/>
</svg>
