<svg width="90" height="90" viewBox="0 0 24 24" fill="none" xmlns="http://www.w3.org/2000/svg">
<g id="shopping-bag dark">
<path id="Fill 2" fill-rule="evenodd" clip-rule="evenodd" d="M19 18.9928C19 19.5448 18.552 19.9928 18 19.9928H6C5.448 19.9928 5 19.5448 5 18.9928V7.99278H7V8.99278C7 9.54578 7.447 9.99278 8 9.99278C8.553 9.99278 9 9.54578 9 8.99278V7.99278H15V8.99278C15 9.54578 15.447 9.99278 16 9.99278C16.553 9.99278 17 9.54578 17 8.99278V7.99278H19V18.9928ZM12 3.58578C13.451 3.58578 14.664 4.62178 14.94 5.99278H9.06C9.336 4.62178 10.549 3.58578 12 3.58578V3.58578ZM20 5.99278H16.94C16.643 3.51779 14.554 1.58578 12 1.58578C9.446 1.58578 7.357 3.51779 7.06 5.99278H4C3.447 5.99278 3 6.43979 3 6.99278V18.9928C3 20.6468 4.346 21.9928 6 21.9928H18C19.654 21.9928 21 20.6468 21 18.9928V6.99278C21 6.43979 20.553 5.99278 20 5.99278V5.99278Z" fill="white"/>
</g>
</svg>
