<svg width="28" height="29" viewBox="0 0 28 29" fill="none" xmlns="http://www.w3.org/2000/svg">
<g clip-path="url(#clip0_1967_287)">
<path d="M21.4375 0.351318H6.5625C2.93813 0.351318 0 3.28945 0 6.91382V21.7888C0 25.4132 2.93813 28.3513 6.5625 28.3513H21.4375C25.0619 28.3513 28 25.4132 28 21.7888V6.91382C28 3.28945 25.0619 0.351318 21.4375 0.351318Z" fill="black"/>
<path d="M21.4375 0.351318H6.5625C2.93813 0.351318 0 3.28945 0 6.91382V21.7888C0 25.4132 2.93813 28.3513 6.5625 28.3513H21.4375C25.0619 28.3513 28 25.4132 28 21.7888V6.91382C28 3.28945 25.0619 0.351318 21.4375 0.351318Z" fill="white"/>
<path d="M21.8282 10.3494C21.8402 10.523 21.8402 10.6965 21.8402 10.8718C21.8402 16.2089 17.7772 22.3643 10.3476 22.3643V22.3611C8.15283 22.3642 6.00349 21.7356 4.15625 20.5504C4.47541 20.5888 4.79609 20.6079 5.11766 20.6087C6.93674 20.6101 8.7035 19.9999 10.134 18.8763C9.29118 18.8603 8.47438 18.5814 7.79783 18.0785C7.12127 17.5756 6.61877 16.8738 6.36059 16.0713C6.96574 16.188 7.5896 16.1642 8.18409 16.0018C6.29978 15.621 4.94408 13.9654 4.94408 12.0426V11.9914C5.50582 12.3043 6.13449 12.4777 6.7772 12.497C5.00248 11.3108 4.45539 8.94972 5.52705 7.10369C6.5411 8.35155 7.8063 9.37213 9.24049 10.0991C10.6747 10.8262 12.2458 11.2433 13.8517 11.3236C13.6916 10.6344 13.7152 9.91516 13.9203 9.23793C14.1253 8.5607 14.5046 7.94918 15.0201 7.46452C16.647 5.93524 19.2056 6.01366 20.7349 7.63963C21.6394 7.46104 22.5068 7.12943 23.2998 6.65908C22.9983 7.5943 22.3673 8.38816 21.5242 8.89295C22.3249 8.79862 23.1069 8.58429 23.8438 8.25716C23.3017 9.06894 22.6191 9.77738 21.8282 10.3494Z" fill="black"/>
</g>
<defs>
<clipPath id="clip0_1967_287">
<rect width="28" height="28" fill="white" transform="translate(0 0.351318)"/>
</clipPath>
</defs>
</svg>
